<svg xmlns="http://www.w3.org/2000/svg" width="15.105" height="15.105" viewBox="0 0 15.105 15.105">
    <defs>
        <style>
            .prefix__cls-3{stroke:none}
        </style>
    </defs>
    <g id="prefix__Group_57" data-name="Group 57" transform="rotate(90 349.053 -271.947)">
        <g id="prefix__Rectangle_25" data-name="Rectangle 25" transform="translate(621 62)" style="stroke:#707070;stroke-linecap:round;stroke-width:.5px;fill:none">
            <rect width="15.105" height="15.105" class="prefix__cls-3" rx="5"/>
            <rect width="14.605" height="14.605" x=".25" y=".25" rx="4.75" style="fill:none"/>
        </g>
        <g id="prefix__Icon_metro-cross" data-name="Icon metro-cross" style="fill:#e81515">
            <path d="M11.3 12.377c-.025 0-.05-.005-.073-.013-.028-.01-.052-.026-.073-.047l-.008-.008-3.2-3.2-.088-.088-.089.088-3.207 3.208c-.021.02-.046.036-.073.047-.024.008-.048.013-.073.013-.055 0-.106-.021-.145-.06l-1.515-1.515c-.057-.057-.075-.142-.047-.218.01-.027.026-.052.047-.073l.005-.005 3.202-3.203.089-.088-.089-.088-3.2-3.201-.013-.017-.006-.003c-.015-.018-.027-.038-.035-.06-.028-.076-.01-.161.047-.218L4.27 2.113c.039-.039.09-.06.145-.06.025 0 .05.004.072.013.028.01.053.026.074.047l3.207 3.208.089.088.088-.088 3.208-3.208c.02-.02.045-.037.073-.047.023-.009.048-.013.073-.013.054 0 .106.021.144.06l1.516 1.515c.056.057.075.142.047.218-.01.027-.026.052-.047.072L9.752 7.128l-.088.088.088.088 3.208 3.208.001.002c.02.02.035.044.045.071.029.076.01.161-.046.218l-1.516 1.515c-.038.039-.09.06-.144.06z" class="prefix__cls-3" transform="translate(620.76 62.402)"/>
            <path d="M11.3 12.252c.015 0 .037-.004.056-.023l1.515-1.516c.027-.027.027-.062.018-.085-.004-.01-.01-.02-.017-.028L9.663 7.392l-.177-.177.177-.177L12.87 3.83h.001c.008-.008.013-.018.017-.028.009-.023.01-.058-.018-.085L11.356 2.2c-.02-.019-.041-.023-.056-.023-.01 0-.02.002-.03.005-.01.004-.02.01-.028.018L8.034 5.41l-.176.177-.177-.177-3.208-3.208c-.008-.008-.017-.014-.028-.018-.01-.003-.02-.005-.03-.005-.014 0-.036.004-.056.023L2.844 3.717c-.027.027-.026.062-.018.085l.003.006.004.003.025.033 3.194 3.194.177.177-.177.177-3.203 3.203-.005.004c-.008.008-.014.018-.018.03-.008.022-.009.057.018.084L4.36 12.23c.02.019.042.023.057.023.01 0 .02-.002.03-.005.01-.004.02-.01.027-.018L7.681 9.02l.177-.177.176.177 3.192 3.192.016.015c.008.009.018.015.029.019.009.003.019.005.029.005m0 .25c-.04 0-.08-.007-.117-.021-.044-.016-.084-.042-.117-.076L7.857 9.198 4.65 12.405c-.034.034-.074.06-.118.076-.037.014-.077.02-.116.02-.085 0-.169-.031-.233-.096L2.667 10.89c-.094-.094-.12-.232-.075-.35.016-.044.042-.084.075-.117l3.208-3.208-3.208-3.208c-.033-.033-.059-.074-.075-.118-.044-.117-.02-.255.075-.35l1.516-1.514c.064-.065.148-.097.233-.097.04 0 .079.007.116.021.044.016.084.042.118.076l3.208 3.207 3.207-3.207c.034-.034.074-.06.118-.076.038-.014.077-.02.117-.02.084 0 .168.031.233.096l1.515 1.515c.094.094.12.232.076.35-.017.043-.043.084-.076.117L9.84 7.215l3.208 3.208c.033.033.06.073.076.118.044.117.018.255-.076.349l-1.515 1.515c-.065.065-.149.097-.233.097z" style="stroke:none;fill:#e81515" transform="translate(620.76 62.402)"/>
        </g>
    </g>
</svg>
