<?xml version="1.0" encoding="UTF-8" standalone="no"?>
<svg
   xmlns:dc="http://purl.org/dc/elements/1.1/"
   xmlns:cc="http://creativecommons.org/ns#"
   xmlns:rdf="http://www.w3.org/1999/02/22-rdf-syntax-ns#"
   xmlns:svg="http://www.w3.org/2000/svg"
   xmlns="http://www.w3.org/2000/svg"
   xmlns:sodipodi="http://sodipodi.sourceforge.net/DTD/sodipodi-0.dtd"
   xmlns:inkscape="http://www.inkscape.org/namespaces/inkscape"
   id="prefix__Component_3_2"
   width="80"
   height="80"
   data-name="Component 3 – 2"
   viewBox="0 0 80 80"
   version="1.1"
   sodipodi:docname="floating.svg"
   inkscape:version="0.92.4 (fd57863, 2020-04-02)">
  <metadata
     id="metadata49">
    <rdf:RDF>
      <cc:Work
         rdf:about="">
        <dc:format>image/svg+xml</dc:format>
        <dc:type
           rdf:resource="http://purl.org/dc/dcmitype/StillImage" />
        <dc:title></dc:title>
      </cc:Work>
    </rdf:RDF>
  </metadata>
  <sodipodi:namedview
     pagecolor="#ffffff"
     bordercolor="#666666"
     borderopacity="1"
     objecttolerance="10"
     gridtolerance="10"
     guidetolerance="10"
     inkscape:pageopacity="0"
     inkscape:pageshadow="2"
     inkscape:window-width="1366"
     inkscape:window-height="678"
     id="namedview47"
     showgrid="false"
     inkscape:zoom="1.4390244"
     inkscape:cx="-36.762711"
     inkscape:cy="82"
     inkscape:window-x="0"
     inkscape:window-y="27"
     inkscape:window-maximized="1"
     inkscape:current-layer="prefix__Component_3_2" />
  <defs
     id="defs4">
    <style
       id="style2">
            .prefix__cls-4{opacity:0}.prefix__cls-7{fill:#fff}.prefix__cls-5{fill:#e4e4e4}.prefix__cls-8{fill:#707070;font-size:12px;font-family:Nunito-ExtraBold,Nunito;font-weight:800}.prefix__cls-9{fill:#9e9e9e}.prefix__cls-10{fill:#f5f5f5}
        </style>
  </defs>
  <path
     id="prefix__Rectangle_22"
     d="M 0,-78 H 128 V 80 H 0 Z"
     data-name="Rectangle 22"
     style="opacity:0"
     inkscape:connector-curvature="0" />
  <g
     id="g821"
     transform="translate(5,-5)">
    <g
       id="prefix__Ellipse_15"
       data-name="Ellipse 15"
       transform="matrix(1.2779661,0,0,1.2779661,-3.338983,6.661017)"
       style="fill:#ffffff;stroke:#707070;stroke-width:0.25px">
      <circle
         cx="30"
         cy="30"
         r="30"
         style="stroke:none"
         id="circle7" />
      <circle
         cx="30"
         cy="30"
         r="29.875"
         style="fill:none"
         id="circle9" />
    </g>
    <path
       id="prefix__add"
       d="M 40.391739,73.754237 H 29.608261 A 3.5936407,3.5936407 0 0 1 26.013343,70.160596 V 53.98538 H 9.8406814 A 3.5936407,3.5936407 0 0 1 6.2457628,50.391739 V 39.608261 A 3.5936407,3.5936407 0 0 1 9.8406814,36.013343 H 26.01462 V 19.840681 a 3.5936407,3.5936407 0 0 1 3.593641,-3.594918 h 10.783478 a 3.5936407,3.5936407 0 0 1 3.593641,3.594918 V 36.01462 h 16.175216 a 3.5936407,3.5936407 0 0 1 3.593641,3.593641 V 50.391739 A 3.5936407,3.5936407 0 0 1 60.160596,53.98538 H 43.98538 v 16.175216 a 3.5936407,3.5936407 0 0 1 -3.593641,3.593641 z m 0,0"
       style="fill:#2e7afb;stroke-width:1.27796602"
       inkscape:connector-curvature="0" />
  </g>
</svg>
