<svg xmlns="http://www.w3.org/2000/svg" width="21.999" height="22" viewBox="0 0 21.999 22">
    <path id="prefix__Icon_ionic-ios-person" d="M26.489 25.944c-.413-1.822-2.767-2.71-3.581-3a26.7 26.7 0 0 0-2.985-.573 3.033 3.033 0 0 1-1.381-.636 12.067 12.067 0 0 1-.092-2.824 8.5 8.5 0 0 0 .653-1.243 16.036 16.036 0 0 0 .481-2.171s.47 0 .636-.825a8.117 8.117 0 0 0 .424-1.919c-.034-.659-.4-.642-.4-.642a10.045 10.045 0 0 0 .39-2.939C20.691 6.82 18.846 4.5 15.506 4.5c-3.386 0-5.191 2.32-5.139 4.675a10.477 10.477 0 0 0 .384 2.939s-.361-.017-.4.642a8.117 8.117 0 0 0 .424 1.919c.16.825.636.825.636.825a16.036 16.036 0 0 0 .481 2.171 8.5 8.5 0 0 0 .653 1.243 12.067 12.067 0 0 1-.092 2.824 3.033 3.033 0 0 1-1.381.636 26.7 26.7 0 0 0-2.985.573c-.814.286-3.168 1.174-3.581 3a.458.458 0 0 0 .453.556h21.083a.457.457 0 0 0 .447-.559z" data-name="Icon ionic-ios-person" transform="translate(-4.501 -4.5)" style="fill:rgba(255,255,255,.8)"/>
</svg>
