<?xml version="1.0" encoding="UTF-8" standalone="no"?>
<svg
   xmlns:dc="http://purl.org/dc/elements/1.1/"
   xmlns:cc="http://creativecommons.org/ns#"
   xmlns:rdf="http://www.w3.org/1999/02/22-rdf-syntax-ns#"
   xmlns:svg="http://www.w3.org/2000/svg"
   xmlns="http://www.w3.org/2000/svg"
   xmlns:sodipodi="http://sodipodi.sourceforge.net/DTD/sodipodi-0.dtd"
   xmlns:inkscape="http://www.inkscape.org/namespaces/inkscape"
   width="95"
   height="95"
   viewBox="0 0 95 95"
   version="1.1"
   id="svg972"
   sodipodi:docname="pouring.svg"
   inkscape:version="0.92.4 (fd57863, 2020-04-02)">
  <metadata
     id="metadata976">
    <rdf:RDF>
      <cc:Work
         rdf:about="">
        <dc:format>image/svg+xml</dc:format>
        <dc:type
           rdf:resource="http://purl.org/dc/dcmitype/StillImage" />
        <dc:title></dc:title>
      </cc:Work>
    </rdf:RDF>
  </metadata>
  <sodipodi:namedview
     pagecolor="#ffffff"
     bordercolor="#666666"
     borderopacity="1"
     objecttolerance="10"
     gridtolerance="10"
     guidetolerance="10"
     inkscape:pageopacity="0"
     inkscape:pageshadow="2"
     inkscape:window-width="1366"
     inkscape:window-height="678"
     id="namedview974"
     showgrid="false"
     inkscape:zoom="5.2315789"
     inkscape:cx="47.5"
     inkscape:cy="47.5"
     inkscape:window-x="0"
     inkscape:window-y="27"
     inkscape:window-maximized="1"
     inkscape:current-layer="svg972" />
  <defs
     id="defs954">
    <style
       id="style952">
            .prefix__cls-1{fill:#fff}.prefix__cls-4{fill:#7f8c8d}.prefix__cls-5{fill:#95a5a5}.prefix__cls-6{fill:#ecf0f1}
        </style>
  </defs>
  <g
     id="g1558"
     transform="matrix(0.96978505,0,0,0.96978505,-73.240517,-48.994593)">
    <path
       inkscape:connector-curvature="0"
       style="fill:#2fa8cc"
       d="m 125.164,110.337 -4.477,33.684 a 1.623,1.623 0 0 1 -1.594,1.369 H 89.659 a 1.623,1.623 0 0 1 -1.594,-1.369 l -4.476,-33.684 a 3.472,3.472 0 0 0 2.673,1.24 c 3.011,-0.001 3.011,-3.221 6.037,-3.221 3.026,0 3.011,3.22 6.038,3.22 3.027,0 3.012,-3.22 6.023,-3.22 3.011,0 3.027,3.22 6.038,3.22 3.011,0 3.027,-3.22 6.038,-3.22 3.011,0 3.027,3.22 6.054,3.22 a 3.552,3.552 0 0 0 2.673,-1.24 z"
       id="prefix__Shape" />
    <path
       style="fill:#7f8c8d"
       inkscape:connector-curvature="0"
       class="prefix__cls-4"
       d="m 144.631,58.441 h 9.661 v 16.1 h -9.661 z"
       id="prefix__Rectangle-path" />
    <rect
       style="fill:#95a5a5"
       y="52"
       x="133"
       rx="2"
       data-name="Rectangle-path"
       class="prefix__cls-5"
       height="8"
       width="33"
       id="prefix__Rectangle-path-2" />
    <path
       style="fill:#7f8c8d"
       inkscape:connector-curvature="0"
       data-name="Shape"
       class="prefix__cls-4"
       d="m 168.783,76.152 v 17.712 a 3.23,3.23 0 0 1 -3.22,3.22 H 150.878 A 49.788,49.788 0 0 1 129.769,92.398 L 119.19,87.472 a 3.22,3.22 0 0 0 -4.493,2.125 l -1.658,6.666 a 3.207,3.207 0 0 1 -3.124,2.431 h -8.324 a 3.22,3.22 0 0 1 -3.2,-3.623 l 0.206,-1.639 0.966,-7.809 a 14.514,14.514 0 0 1 14.394,-12.691 h 51.606 a 3.23,3.23 0 0 1 3.22,3.22 z"
       id="prefix__Shape-2" />
    <path
       style="fill:#95a5a5"
       inkscape:connector-curvature="0"
       data-name="Shape"
       class="prefix__cls-5"
       d="m 168.786,76.152 v 14.492 a 3.23,3.23 0 0 1 -3.22,3.22 h -14.688 a 49.788,49.788 0 0 1 -21.109,-4.686 l -10.583,-4.927 a 3.22,3.22 0 0 0 -4.492,2.125 l -1.658,6.666 a 3.207,3.207 0 0 1 -3.124,2.431 h -8.326 a 3.185,3.185 0 0 1 -2.99,-2.041 l 0.966,-7.809 a 14.514,14.514 0 0 1 14.395,-12.691 h 51.606 a 3.23,3.23 0 0 1 3.22,3.22 z"
       id="prefix__Shape-3" />
    <path
       style="fill:#ecf0f1"
       inkscape:connector-curvature="0"
       data-name="Shape"
       class="prefix__cls-6"
       d="m 131.75,80.983 h -3.221 a 1.61,1.61 0 0 1 0,-3.22 h 3.22 a 1.61,1.61 0 0 1 0,3.22 z"
       id="prefix__Shape-4" />
    <path
       style="fill:#ecf0f1"
       inkscape:connector-curvature="0"
       data-name="Shape"
       class="prefix__cls-6"
       d="M 162.343,80.983 H 138.19 a 1.61,1.61 0 0 1 0,-3.22 h 24.153 a 1.61,1.61 0 0 1 0,3.22 z"
       id="prefix__Shape-5" />
    <path
       style="fill:#ffffff"
       inkscape:connector-curvature="0"
       data-name="Shape"
       class="prefix__cls-1"
       d="m 94.715,147 a 1.61,1.61 0 0 1 -1.6,-1.411 l -2.317,-18.533 a 1.6124515,1.6124515 0 0 1 3.2,-0.4 l 2.319,18.533 a 1.61,1.61 0 0 1 -1.4,1.8 1.423,1.423 0 0 1 -0.2,0.013 z"
       id="prefix__Shape-6" />
    <circle
       style="fill:#ffffff"
       class="prefix__cls-1"
       r="1.5"
       cy="119.5"
       cx="91.5"
       id="prefix__Oval" />
    <path
       inkscape:connector-curvature="0"
       style="fill:#bdc3c7"
       data-name="Shape"
       d="M 119.088,147 H 89.664 a 3.238,3.238 0 0 1 -3.185,-2.752 L 80.238,97.297 a 1.61,1.61 0 1 1 3.191,-0.425 l 6.238,46.93 29.421,-0.023 6.234,-46.907 a 1.61,1.61 0 1 1 3.191,0.425 l -6.236,46.929 A 3.244,3.244 0 0 1 119.089,147 Z"
       id="prefix__Shape-7" />
  </g>
</svg>
