<?xml version="1.0" encoding="UTF-8" standalone="no"?>
<svg
   xmlns:dc="http://purl.org/dc/elements/1.1/"
   xmlns:cc="http://creativecommons.org/ns#"
   xmlns:rdf="http://www.w3.org/1999/02/22-rdf-syntax-ns#"
   xmlns:svg="http://www.w3.org/2000/svg"
   xmlns="http://www.w3.org/2000/svg"
   xmlns:sodipodi="http://sodipodi.sourceforge.net/DTD/sodipodi-0.dtd"
   xmlns:inkscape="http://www.inkscape.org/namespaces/inkscape"
   height="1792"
   viewBox="0 0 1792 1792"
   width="1792"
   version="1.1"
   id="svg4"
   sodipodi:docname="search.svg"
   inkscape:version="0.92.4 (fd57863, 2020-04-02)">
  <metadata
     id="metadata10">
    <rdf:RDF>
      <cc:Work
         rdf:about="">
        <dc:format>image/svg+xml</dc:format>
        <dc:type
           rdf:resource="http://purl.org/dc/dcmitype/StillImage" />
      </cc:Work>
    </rdf:RDF>
  </metadata>
  <defs
     id="defs8" />
  <sodipodi:namedview
     pagecolor="#ffffff"
     bordercolor="#666666"
     borderopacity="1"
     objecttolerance="10"
     gridtolerance="10"
     guidetolerance="10"
     inkscape:pageopacity="0"
     inkscape:pageshadow="2"
     inkscape:window-width="1366"
     inkscape:window-height="678"
     id="namedview6"
     showgrid="false"
     inkscape:zoom="0.13169643"
     inkscape:cx="896"
     inkscape:cy="896"
     inkscape:window-x="0"
     inkscape:window-y="27"
     inkscape:window-maximized="1"
     inkscape:current-layer="svg4" />
  <path
     d="m 1084.5789,820.56845 q 0,-109.02216 -77.4941,-186.5163 -77.49418,-77.49413 -186.51635,-77.49413 -109.02216,0 -186.5163,77.49413 -77.49413,77.49414 -77.49413,186.5163 0,109.02217 77.49413,186.51635 77.49414,77.4941 186.5163,77.4941 109.02217,0 186.51635,-77.4941 77.4941,-77.49418 77.4941,-186.51635 z m 301.7262,490.30505 q 0,30.6441 -22.3937,53.0379 -22.3938,22.3937 -53.0379,22.3937 -31.8227,0 -53.0378,-22.3937 l -202.1329,-201.5437 q -105.48637,73.0743 -235.13435,73.0743 -84.27119,0 -161.17601,-32.7066 -76.90482,-32.7067 -132.59452,-88.3964 -55.68971,-55.6897 -88.39635,-132.59452 -32.70665,-76.90484 -32.70665,-161.17603 0,-84.27119 32.70665,-161.17601 32.70664,-76.90482 88.39635,-132.59452 55.6897,-55.68971 132.59452,-88.39635 76.90482,-32.70665 161.17601,-32.70665 84.27119,0 161.17603,32.70665 76.90482,32.70664 132.59452,88.39635 55.6897,55.6897 88.3964,132.59452 32.7066,76.90482 32.7066,161.17601 0,129.64798 -73.0743,235.13435 l 202.1329,202.1329 q 21.8045,21.8045 21.8045,53.0378 z"
     id="path2"
     inkscape:connector-curvature="0"
     style="stroke-width:0.58930898;fill:#f9f9f9" />
</svg>
